HIERARCHY
ROOT mixamorig:Hips
{
	OFFSET -0.000008 104.274872 1.554316
	CHANNELS 6 Xposition Yposition Zposition Xrotation Yrotation Zrotation
	JOINT mixamorig:Spine
	{
		OFFSET -0.000005 10.181595 0.131519
		CHANNELS 6 Xposition Yposition Zposition Xrotation Yrotation Zrotation
		JOINT mixamorig:Spine1
		{
			OFFSET -0.000000 9.893959 -1.470707
			CHANNELS 6 Xposition Yposition Zposition Xrotation Yrotation Zrotation
			JOINT mixamorig:Spine2
			{
				OFFSET -0.000000 9.220757 -1.370641
				CHANNELS 6 Xposition Yposition Zposition Xrotation Yrotation Zrotation
				JOINT mixamorig:Neck
				{
					OFFSET 0.000001 16.740417 -2.049036
					CHANNELS 6 Xposition Yposition Zposition Xrotation Yrotation Zrotation
					JOINT mixamorig:Head
					{
						OFFSET 0.000000 9.617874 1.685006
						CHANNELS 6 Xposition Yposition Zposition Xrotation Yrotation Zrotation
						JOINT mixamorig:HeadTop_End
						{
							OFFSET 0.000002 22.037354 7.501101
							CHANNELS 6 Xposition Yposition Zposition Xrotation Yrotation Zrotation
							End Site
							{
								OFFSET 0.000168 2310.654297 -282.823242
							}
						}
					}
				}
				JOINT mixamorig:RightShoulder
				{
					OFFSET -4.569970 11.014908 -2.160885
					CHANNELS 6 Xposition Yposition Zposition Xrotation Yrotation Zrotation
					JOINT mixamorig:RightArm
					{
						OFFSET -10.592851 -0.524811 -2.232101
						CHANNELS 6 Xposition Yposition Zposition Xrotation Yrotation Zrotation
						JOINT mixamorig:RightForeArm
						{
							OFFSET -27.841511 0.000031 -0.000004
							CHANNELS 6 Xposition Yposition Zposition Xrotation Yrotation Zrotation
							JOINT mixamorig:RightHand
							{
								OFFSET -28.328831 -0.000015 0.000015
								CHANNELS 6 Xposition Yposition Zposition Xrotation Yrotation Zrotation
								JOINT mixamorig:RightHandThumb1
								{
									OFFSET -2.464806 -1.573990 2.681852
									CHANNELS 6 Xposition Yposition Zposition Xrotation Yrotation Zrotation
									JOINT mixamorig:RightHandThumb2
									{
										OFFSET -3.215179 -1.872803 1.924282
										CHANNELS 6 Xposition Yposition Zposition Xrotation Yrotation Zrotation
										JOINT mixamorig:RightHandThumb3
										{
											OFFSET -2.654831 -1.527969 1.512609
											CHANNELS 6 Xposition Yposition Zposition Xrotation Yrotation Zrotation
											JOINT mixamorig:RightHandThumb4
											{
												OFFSET -2.018814 -1.152008 1.108052
												CHANNELS 6 Xposition Yposition Zposition Xrotation Yrotation Zrotation
												End Site
												{
													OFFSET -188.809540 -114.533607 132.431396
												}
											}
										}
									}
								}
								JOINT mixamorig:RightHandIndex1
								{
									OFFSET -9.108284 -0.517868 2.259835
									CHANNELS 6 Xposition Yposition Zposition Xrotation Yrotation Zrotation
									JOINT mixamorig:RightHandIndex2
									{
										OFFSET -3.699989 0.000000 0.001215
										CHANNELS 6 Xposition Yposition Zposition Xrotation Yrotation Zrotation
										JOINT mixamorig:RightHandIndex3
										{
											OFFSET -2.850006 0.000031 -0.000522
											CHANNELS 6 Xposition Yposition Zposition Xrotation Yrotation Zrotation
											JOINT mixamorig:RightHandIndex4
											{
												OFFSET -2.772186 -0.000015 -0.000020
												CHANNELS 6 Xposition Yposition Zposition Xrotation Yrotation Zrotation
												End Site
												{
													OFFSET -277.218445 0.000000 -0.050231
												}
											}
										}
									}
								}
								JOINT mixamorig:RightHandMiddle1
								{
									OFFSET -9.532516 -0.000031 -0.000023
									CHANNELS 6 Xposition Yposition Zposition Xrotation Yrotation Zrotation
									JOINT mixamorig:RightHandMiddle2
									{
										OFFSET -3.700005 -0.000015 0.003713
										CHANNELS 6 Xposition Yposition Zposition Xrotation Yrotation Zrotation
										JOINT mixamorig:RightHandMiddle3
										{
											OFFSET -2.949974 0.000015 -0.002054
											CHANNELS 6 Xposition Yposition Zposition Xrotation Yrotation Zrotation
											JOINT mixamorig:RightHandMiddle4
											{
												OFFSET -2.946640 0.000000 -0.000156
												CHANNELS 6 Xposition Yposition Zposition Xrotation Yrotation Zrotation
												End Site
												{
													OFFSET -294.664337 0.000000 -0.113670
												}
											}
										}
									}
								}
								JOINT mixamorig:RightHandRing1
								{
									OFFSET -9.103600 -0.043076 -1.865134
									CHANNELS 6 Xposition Yposition Zposition Xrotation Yrotation Zrotation
									JOINT mixamorig:RightHandRing2
									{
										OFFSET -3.379288 0.000000 -0.001055
										CHANNELS 6 Xposition Yposition Zposition Xrotation Yrotation Zrotation
										JOINT mixamorig:RightHandRing3
										{
											OFFSET -2.889687 -0.000015 0.000379
											CHANNELS 6 Xposition Yposition Zposition Xrotation Yrotation Zrotation
											JOINT mixamorig:RightHandRing4
											{
												OFFSET -2.638809 -0.000015 0.000941
												CHANNELS 6 Xposition Yposition Zposition Xrotation Yrotation Zrotation
												End Site
												{
													OFFSET -263.880371 0.000000 0.516020
												}
											}
										}
									}
								}
								JOINT mixamorig:RightHandPinky1
								{
									OFFSET -8.076683 -0.486710 -3.806280
									CHANNELS 6 Xposition Yposition Zposition Xrotation Yrotation Zrotation
									JOINT mixamorig:RightHandPinky2
									{
										OFFSET -3.600014 -0.000015 -0.003747
										CHANNELS 6 Xposition Yposition Zposition Xrotation Yrotation Zrotation
										JOINT mixamorig:RightHandPinky3
										{
											OFFSET -2.099983 0.000000 -0.005739
											CHANNELS 6 Xposition Yposition Zposition Xrotation Yrotation Zrotation
											JOINT mixamorig:RightHandPinky4
											{
												OFFSET -2.115768 -0.000031 -0.003680
												CHANNELS 6 Xposition Yposition Zposition Xrotation Yrotation Zrotation
												End Site
												{
													OFFSET -211.577087 0.000000 -0.350686
												}
											}
										}
									}
								}
							}
						}
					}
				}
				JOINT mixamorig:LeftShoulder
				{
					OFFSET 4.570447 11.014725 -2.160855
					CHANNELS 6 Xposition Yposition Zposition Xrotation Yrotation Zrotation
					JOINT mixamorig:LeftArm
					{
						OFFSET 10.592371 -0.524597 -2.232119
						CHANNELS 6 Xposition Yposition Zposition Xrotation Yrotation Zrotation
						JOINT mixamorig:LeftForeArm
						{
							OFFSET 27.841532 -0.000031 0.000026
							CHANNELS 6 Xposition Yposition Zposition Xrotation Yrotation Zrotation
							JOINT mixamorig:LeftHand
							{
								OFFSET 28.328846 -0.000061 0.000022
								CHANNELS 6 Xposition Yposition Zposition Xrotation Yrotation Zrotation
								JOINT mixamorig:LeftHandThumb1
								{
									OFFSET 2.466141 -1.576172 2.681732
									CHANNELS 6 Xposition Yposition Zposition Xrotation Yrotation Zrotation
									JOINT mixamorig:LeftHandThumb2
									{
										OFFSET 3.217812 -1.872070 1.916482
										CHANNELS 6 Xposition Yposition Zposition Xrotation Yrotation Zrotation
										JOINT mixamorig:LeftHandThumb3
										{
											OFFSET 2.656029 -1.528778 1.514513
											CHANNELS 6 Xposition Yposition Zposition Xrotation Yrotation Zrotation
											JOINT mixamorig:LeftHandThumb4
											{
												OFFSET 2.020889 -1.154053 1.115139
												CHANNELS 6 Xposition Yposition Zposition Xrotation Yrotation Zrotation
												End Site
												{
													OFFSET 190.885437 -115.081749 130.048782
												}
											}
										}
									}
								}
								JOINT mixamorig:LeftHandIndex1
								{
									OFFSET 9.109314 -0.518021 2.259871
									CHANNELS 6 Xposition Yposition Zposition Xrotation Yrotation Zrotation
									JOINT mixamorig:LeftHandIndex2
									{
										OFFSET 3.699989 0.000000 -0.000322
										CHANNELS 6 Xposition Yposition Zposition Xrotation Yrotation Zrotation
										JOINT mixamorig:LeftHandIndex3
										{
											OFFSET 2.850006 0.000000 0.000352
											CHANNELS 6 Xposition Yposition Zposition Xrotation Yrotation Zrotation
											JOINT mixamorig:LeftHandIndex4
											{
												OFFSET 2.774864 -0.000031 -0.000027
												CHANNELS 6 Xposition Yposition Zposition Xrotation Yrotation Zrotation
												End Site
												{
													OFFSET 277.486267 0.000000 -0.009857
												}
											}
										}
									}
								}
								JOINT mixamorig:LeftHandMiddle1
								{
									OFFSET 9.533394 0.000061 0.000044
									CHANNELS 6 Xposition Yposition Zposition Xrotation Yrotation Zrotation
									JOINT mixamorig:LeftHandMiddle2
									{
										OFFSET 3.699989 -0.000015 -0.000231
										CHANNELS 6 Xposition Yposition Zposition Xrotation Yrotation Zrotation
										JOINT mixamorig:LeftHandMiddle3
										{
											OFFSET 2.949997 -0.000015 -0.000059
											CHANNELS 6 Xposition Yposition Zposition Xrotation Yrotation Zrotation
											JOINT mixamorig:LeftHandMiddle4
											{
												OFFSET 2.952896 0.000031 0.000063
												CHANNELS 6 Xposition Yposition Zposition Xrotation Yrotation Zrotation
												End Site
												{
													OFFSET 295.289337 0.000000 0.022810
												}
											}
										}
									}
								}
								JOINT mixamorig:LeftHandRing1
								{
									OFFSET 9.104523 -0.042999 -1.865074
									CHANNELS 6 Xposition Yposition Zposition Xrotation Yrotation Zrotation
									JOINT mixamorig:LeftHandRing2
									{
										OFFSET 3.150009 -0.000031 0.000043
										CHANNELS 6 Xposition Yposition Zposition Xrotation Yrotation Zrotation
										JOINT mixamorig:LeftHandRing3
										{
											OFFSET 2.949982 -0.000015 0.000040
											CHANNELS 6 Xposition Yposition Zposition Xrotation Yrotation Zrotation
											JOINT mixamorig:LeftHandRing4
											{
												OFFSET 2.644348 0.000000 0.000057
												CHANNELS 6 Xposition Yposition Zposition Xrotation Yrotation Zrotation
												End Site
												{
													OFFSET 264.434631 0.000000 0.012105
												}
											}
										}
									}
								}
								JOINT mixamorig:LeftHandPinky1
								{
									OFFSET 8.077789 -0.486847 -3.806259
									CHANNELS 6 Xposition Yposition Zposition Xrotation Yrotation Zrotation
									JOINT mixamorig:LeftHandPinky2
									{
										OFFSET 3.599953 0.000031 0.014727
										CHANNELS 6 Xposition Yposition Zposition Xrotation Yrotation Zrotation
										JOINT mixamorig:LeftHandPinky3
										{
											OFFSET 2.100021 0.000015 0.007705
											CHANNELS 6 Xposition Yposition Zposition Xrotation Yrotation Zrotation
											JOINT mixamorig:LeftHandPinky4
											{
												OFFSET 2.125504 0.000031 0.007517
												CHANNELS 6 Xposition Yposition Zposition Xrotation Yrotation Zrotation
												End Site
												{
													OFFSET 212.550781 0.000000 0.625752
												}
											}
										}
									}
								}
							}
						}
					}
				}
			}
		}
	}
	JOINT mixamorig:RightUpLeg
	{
		OFFSET -8.207787 -6.751648 -1.599560
		CHANNELS 6 Xposition Yposition Zposition Xrotation Yrotation Zrotation
		JOINT mixamorig:RightLeg
		{
			OFFSET -0.000002 -44.370117 0.345942
			CHANNELS 6 Xposition Yposition Zposition Xrotation Yrotation Zrotation
			JOINT mixamorig:RightFoot
			{
				OFFSET 0.000003 -44.423679 -3.043532
				CHANNELS 6 Xposition Yposition Zposition Xrotation Yrotation Zrotation
				JOINT mixamorig:RightToeBase
				{
					OFFSET -0.000002 -8.728671 10.710558
					CHANNELS 6 Xposition Yposition Zposition Xrotation Yrotation Zrotation
					JOINT mixamorig:RightToe_End
					{
						OFFSET -0.000001 -0.000679 9.278119
						CHANNELS 6 Xposition Yposition Zposition Xrotation Yrotation Zrotation
						End Site
						{
							OFFSET 0.000000 -0.067690 927.812134
						}
					}
				}
			}
		}
	}
	JOINT mixamorig:LeftUpLeg
	{
		OFFSET 8.207793 -6.751686 -1.599556
		CHANNELS 6 Xposition Yposition Zposition Xrotation Yrotation Zrotation
		JOINT mixamorig:LeftLeg
		{
			OFFSET -0.000004 -44.370014 0.346954
			CHANNELS 6 Xposition Yposition Zposition Xrotation Yrotation Zrotation
			JOINT mixamorig:LeftFoot
			{
				OFFSET -0.000001 -44.423672 -3.044401
				CHANNELS 6 Xposition Yposition Zposition Xrotation Yrotation Zrotation
				JOINT mixamorig:LeftToeBase
				{
					OFFSET -0.000002 -8.728669 10.710558
					CHANNELS 6 Xposition Yposition Zposition Xrotation Yrotation Zrotation
					JOINT mixamorig:LeftToe_End
					{
						OFFSET -0.000003 -0.000679 9.278133
						CHANNELS 6 Xposition Yposition Zposition Xrotation Yrotation Zrotation
						End Site
						{
							OFFSET 0.000000 -0.068021 927.813477
						}
					}
				}
			}
		}
	}
}
MOTION
Frames: 3
Frame Time: 0.033333
0.000006 104.270477 1.554256 0.000010 0.000003 -0.000113 -0.000005 10.181587 0.131522 0.000001 -0.000003 0.000084 -0.000000 9.893967 -1.470711 0.000001 0.000000 -0.000000 -0.000000 9.220802 -1.370642 0.000000 -0.000000 -0.000000 0.000001 16.740433 -2.049030 0.000000 -0.000000 -0.000000 0.000000 9.617859 1.685014 0.000000 0.000000 0.000000 0.000002 22.037384 7.501101 0.000000 -0.000000 0.000000 -4.569968 11.014880 -2.160881 0.000008 0.000001 -0.000038 -10.592870 -0.524785 -2.231887 76.077372 33.363446 -26.389527 -27.841541 -0.000006 0.000543 -56.546808 108.941080 73.974979 -28.328840 0.000005 0.000023 -0.000320 -0.000044 0.000006 -2.464425 -1.573890 2.682365 -35.500963 -154.187709 16.098298 -3.215285 -1.872562 1.924632 155.028041 33.500118 14.809426 -2.654945 -1.527922 1.513111 148.416268 25.039482 -51.427506 -2.018826 -1.152000 1.108076 -0.000004 -0.000001 0.000002 -9.108399 -0.517570 2.260115 96.044303 19.100305 -21.236643 -3.700068 0.000309 0.001499 90.276352 16.157086 -16.209757 -2.850086 0.000355 -0.000294 88.332603 12.117253 -11.771221 -2.772170 -0.000013 -0.000020 0.000000 0.000001 -0.000001 -9.532573 0.000283 0.000242 93.423157 14.817011 -15.867776 -3.700064 0.000329 0.003966 92.691828 10.613897 -11.024062 -2.950053 0.000337 -0.001816 91.497487 10.861535 -11.140183 -2.946623 0.000004 -0.000154 0.000004 -0.000002 -0.000001 -9.103697 -0.042738 -1.864879 93.826452 14.515185 -15.460178 -3.379323 0.000330 -0.000806 94.862237 7.139671 -7.789214 -2.889726 0.000358 0.000622 94.864450 5.666997 -6.217533 -2.638819 -0.000020 0.000942 0.000000 -0.000002 0.000001 -8.076750 -0.486364 -3.806019 92.390876 14.526796 -14.985980 -3.600040 0.000288 -0.003503 94.853125 6.296581 -6.477385 -2.100004 0.000328 -0.005488 92.224964 4.021547 -3.958021 -2.115763 -0.000049 -0.003680 0.000001 -0.000001 -0.000005 4.570446 11.014691 -2.160851 -0.000018 0.000010 -0.000021 10.592395 -0.524470 -2.232340 75.910436 -10.983030 8.577450 27.841816 0.000080 -0.000220 96.994232 -69.634188 76.334529 28.328840 -0.000029 0.000020 0.000024 -0.000088 -0.000000 2.466061 -1.576176 2.681892 -28.154625 156.546720 -32.038502 3.217780 -1.871724 1.916371 158.206797 -31.311838 0.133091 2.656120 -1.528662 1.514456 142.773766 -27.051611 46.240230 2.020899 -1.154074 1.115148 -0.000001 0.000008 0.000006 9.109381 -0.517880 2.259747 81.967154 -18.403024 16.010827 3.700047 0.000114 -0.000458 77.205815 -18.074723 14.488177 2.850055 0.000164 0.000206 73.043832 -14.355377 10.655064 2.774899 -0.000046 -0.000022 -0.000001 -0.000002 -0.000002 9.533459 0.000198 -0.000080 81.692771 -15.725548 13.610005 3.700056 0.000155 -0.000365 81.713433 -14.397363 12.466471 2.950060 0.000154 -0.000180 81.782814 -17.357544 15.062418 2.952865 0.000000 0.000059 0.000000 0.000001 0.000000 9.104581 -0.042859 -1.865234 80.959106 -14.610789 12.489779 3.150045 0.000167 -0.000091 83.712813 -12.172718 10.914968 2.950015 0.000161 -0.000080 84.407266 -13.848232 12.570894 2.644325 0.000031 0.000055 0.000000 0.000002 0.000000 8.077828 -0.486726 -3.806409 73.943491 -15.897033 12.446107 3.599993 0.000169 0.014561 76.070125 -12.453541 10.155167 2.100041 0.000172 0.007553 78.587829 -11.804240 10.066783 2.125512 -0.000013 0.007511 0.000000 0.000001 -0.000000 -8.207786 -6.751667 -1.599560 -0.077001 -0.000003 0.000080 -0.000002 -44.370110 0.345938 0.153719 -0.000000 -0.000000 0.000000 -44.423679 -3.043532 -0.076700 0.000000 -0.000002 -0.000006 -8.728667 10.710559 -0.000009 -0.000000 -0.000000 -0.000001 -0.000679 9.278123 0.000000 -0.000000 -0.000000 8.207792 -6.751710 -1.599556 -0.074518 -0.000003 0.000081 -0.000002 -44.370014 0.346960 0.148822 0.000002 0.000000 -0.000001 -44.423664 -3.044403 -0.074314 0.000000 -0.000002 -0.000004 -8.728671 10.710558 0.000007 -0.000000 -0.000000 0.000000 -0.000680 9.278137 -0.000000 0.000000 -0.000001 
0.000006 104.270477 1.554256 0.000010 0.000003 -0.000113 -0.000005 10.181587 0.131522 0.000001 -0.000003 0.000084 -0.000000 9.893967 -1.470711 0.000001 0.000000 -0.000000 -0.000000 9.220802 -1.370642 0.000000 -0.000000 -0.000000 0.000001 16.740433 -2.049030 0.000000 -0.000000 -0.000000 0.000000 9.617859 1.685014 0.000000 0.000000 0.000000 0.000002 22.037384 7.501101 0.000000 -0.000000 0.000000 -4.569968 11.014880 -2.160881 0.000008 0.000001 -0.000038 -10.592875 -0.524764 -2.231907 76.845994 29.335813 -23.459210 -27.841522 0.000031 0.000553 -54.109056 107.921347 70.132949 -28.328835 0.000018 0.000026 -0.000321 -0.000045 0.000006 -2.464402 -1.573815 2.682331 -44.789625 -157.996878 -3.063774 -3.215276 -1.872526 1.924629 152.357779 33.938080 21.483546 -2.654959 -1.527888 1.513096 148.702056 26.011404 -42.264773 -2.018835 -1.151989 1.108067 -0.000002 -0.000004 0.000005 -9.108398 -0.517559 2.260100 92.674978 17.596488 -18.473128 -3.700080 0.000319 0.001477 89.080864 14.095860 -13.850354 -2.850091 0.000371 -0.000290 87.638533 11.113579 -10.666463 -2.772174 -0.000016 -0.000016 -0.000002 0.000000 -0.000002 -9.532593 0.000274 0.000227 90.190804 15.653195 -15.847053 -3.700064 0.000329 0.003933 90.147084 10.977626 -10.911987 -2.950052 0.000334 -0.001810 93.011610 10.770019 -11.340437 -2.946615 -0.000014 -0.000154 0.000001 -0.000000 -0.000004 -9.103708 -0.042751 -1.864879 90.601100 16.494789 -16.621489 -3.379317 0.000324 -0.000832 90.965805 7.550151 -7.695289 -2.889752 0.000352 0.000634 98.399530 5.423956 -6.333702 -2.638806 -0.000002 0.000940 -0.000000 0.000000 -0.000001 -8.076752 -0.486381 -3.806035 88.679392 16.415975 -15.900458 -3.600036 0.000287 -0.003506 92.631668 5.813528 -5.727881 -2.100000 0.000340 -0.005477 96.522000 2.891084 -3.004306 -2.115772 -0.000049 -0.003677 -0.000000 0.000000 -0.000005 4.570446 11.014691 -2.160851 -0.000018 0.000010 -0.000021 10.592383 -0.524482 -2.232340 75.630166 -6.563367 5.096154 27.841825 0.000059 -0.000198 98.044961 -71.147970 78.939331 28.328833 -0.000043 0.000019 0.000019 -0.000089 -0.000000 2.466161 -1.576153 2.681881 -14.085809 161.264004 -62.550866 3.217859 -1.871770 1.916393 165.215241 -25.305200 26.799419 2.656106 -1.528671 1.514482 144.926027 -25.606278 56.008958 2.020906 -1.154051 1.115156 0.000004 0.000005 0.000006 9.109375 -0.517885 2.259727 81.307528 -20.893516 17.982853 3.700040 0.000130 -0.000462 77.404041 -14.622856 11.752677 2.850041 0.000141 0.000205 75.716998 -11.374539 8.852111 2.774879 -0.000029 -0.000022 -0.000000 0.000002 0.000000 9.533461 0.000192 -0.000091 81.686071 -18.321211 15.864639 3.700047 0.000173 -0.000394 82.731192 -11.642279 10.257206 2.950056 0.000162 -0.000209 82.311334 -11.536033 10.093859 2.952864 -0.000016 0.000067 0.000000 0.000001 0.000001 9.104589 -0.042867 -1.865226 82.207931 -17.621903 15.405348 3.150024 0.000196 -0.000088 83.683806 -11.515024 10.319280 2.950011 0.000161 -0.000084 83.861561 -9.941404 8.935434 2.644314 0.000031 0.000061 -0.000000 -0.000001 0.000001 8.077845 -0.486731 -3.806422 75.764850 -19.187381 15.458094 3.600027 0.000171 0.014563 75.848397 -15.126463 12.222102 2.100041 0.000172 0.007534 78.062539 -11.034749 9.343908 2.125518 -0.000014 0.007516 -0.000000 -0.000002 0.000000 -8.207786 -6.751667 -1.599560 -0.077001 -0.000003 0.000080 -0.000002 -44.370110 0.345938 0.153719 -0.000000 -0.000000 0.000000 -44.423679 -3.043532 -0.076700 0.000000 -0.000002 -0.000006 -8.728667 10.710559 -0.000009 -0.000000 -0.000000 -0.000001 -0.000679 9.278123 0.000000 -0.000000 -0.000000 8.207792 -6.751710 -1.599556 -0.074518 -0.000003 0.000081 -0.000002 -44.370014 0.346960 0.148822 0.000002 0.000000 -0.000001 -44.423664 -3.044403 -0.074314 0.000000 -0.000002 -0.000004 -8.728671 10.710558 0.000007 -0.000000 -0.000000 0.000000 -0.000680 9.278137 -0.000000 0.000000 -0.000001 
0.000006 104.270477 1.554256 0.000010 0.000003 -0.000113 -0.000005 10.181587 0.131522 0.000001 -0.000003 0.000084 -0.000000 9.893967 -1.470711 0.000001 0.000000 -0.000000 -0.000000 9.220802 -1.370642 0.000000 -0.000000 -0.000000 0.000001 16.740433 -2.049030 0.000000 -0.000000 -0.000000 0.000000 9.617859 1.685014 0.000000 0.000000 0.000000 0.000002 22.037384 7.501101 0.000000 -0.000000 0.000000 -4.569968 11.014880 -2.160881 0.000008 0.000001 -0.000038 -10.592866 -0.524786 -2.231866 76.676728 36.522090 -29.250299 -27.841513 0.000015 0.000535 -52.814393 105.486234 66.276802 -28.328815 0.000010 0.000029 -0.000321 -0.000044 0.000005 -2.464383 -1.573811 2.682337 -45.421632 -158.256344 -4.491264 -3.215256 -1.872528 1.924635 152.085213 33.842139 21.320941 -2.654960 -1.527919 1.513097 148.764047 26.131650 -41.068012 -2.018826 -1.151995 1.108064 -0.000003 -0.000001 0.000002 -9.108370 -0.517569 2.260107 93.033153 17.560058 -18.548762 -3.700065 0.000320 0.001486 89.465813 14.490023 -14.333328 -2.850068 0.000363 -0.000295 88.076423 11.436021 -11.059868 -2.772165 -0.000014 -0.000018 0.000001 -0.000001 0.000001 -9.532570 0.000274 0.000235 90.749425 15.591355 -15.937604 -3.700060 0.000324 0.003961 90.732445 11.544095 -11.596353 -2.950046 0.000318 -0.001817 93.527549 11.244208 -11.946166 -2.946620 0.000014 -0.000159 0.000002 -0.000002 -0.000002 -9.103682 -0.042754 -1.864874 90.879977 16.542457 -16.749806 -3.379326 0.000327 -0.000820 91.317840 7.923743 -8.124874 -2.889738 0.000359 0.000636 98.724647 5.729677 -6.726230 -2.638805 -0.000002 0.000943 -0.000000 -0.000000 0.000001 -8.076733 -0.486392 -3.806022 88.669256 16.402213 -15.884250 -3.600020 0.000297 -0.003513 92.206290 5.831780 -5.704431 -2.099989 0.000336 -0.005487 96.145370 2.909624 -3.005086 -2.115765 -0.000036 -0.003678 -0.000002 0.000002 -0.000005 4.570446 11.014691 -2.160851 -0.000018 0.000010 -0.000021 10.592411 -0.524462 -2.232374 75.633881 -15.521518 12.076496 27.841825 0.000035 -0.000188 98.741094 -73.773570 82.350382 28.328815 -0.000029 0.000024 0.000023 -0.000089 0.000000 2.466215 -1.576109 2.681850 -4.184060 162.973081 -79.858845 3.217865 -1.871802 1.916404 164.650015 -23.970679 32.183800 2.656105 -1.528684 1.514473 142.871315 -26.301254 56.730110 2.020884 -1.154054 1.115148 0.000002 0.000005 0.000002 9.109376 -0.517887 2.259743 79.977369 -21.496818 18.082361 3.700045 0.000141 -0.000461 78.434252 -14.729540 12.056752 2.850020 0.000180 0.000190 77.802459 -11.371532 9.185541 2.774889 -0.000046 -0.000025 0.000000 0.000000 -0.000001 9.533463 0.000187 -0.000090 81.180644 -18.656274 16.014558 3.700037 0.000171 -0.000381 83.463751 -11.743725 10.480115 2.950051 0.000155 -0.000207 83.594754 -11.462743 10.257388 2.952873 -0.000015 0.000069 -0.000001 -0.000002 0.000000 9.104600 -0.042867 -1.865207 81.831520 -18.159878 15.773805 3.150050 0.000184 -0.000093 83.968262 -12.375706 11.146807 2.950014 0.000177 -0.000078 84.153156 -10.265983 9.274555 2.644326 0.000014 0.000057 -0.000002 0.000001 -0.000000 8.077852 -0.486731 -3.806409 75.871852 -19.391503 15.649319 3.600006 0.000155 0.014582 75.520842 -15.803446 12.682124 2.100032 0.000173 0.007538 77.420836 -11.597421 9.693274 2.125503 -0.000030 0.007513 0.000001 -0.000002 0.000001 -8.207786 -6.751667 -1.599560 -0.077001 -0.000003 0.000080 -0.000002 -44.370110 0.345938 0.153719 -0.000000 -0.000000 0.000000 -44.423679 -3.043532 -0.076700 0.000000 -0.000002 -0.000006 -8.728667 10.710559 -0.000009 -0.000000 -0.000000 -0.000001 -0.000679 9.278123 0.000000 -0.000000 -0.000000 8.207792 -6.751710 -1.599556 -0.074518 -0.000003 0.000081 -0.000002 -44.370014 0.346960 0.148822 0.000002 0.000000 -0.000001 -44.423664 -3.044403 -0.074314 0.000000 -0.000002 -0.000004 -8.728671 10.710558 0.000007 -0.000000 -0.000000 0.000000 -0.000680 9.278137 -0.000000 0.000000 -0.000001 
